<svg xmlns="http://www.w3.org/2000/svg" xmlns:xlink="http://www.w3.org/1999/xlink" width="500" zoomAndPan="magnify" viewBox="0 0 375 374.999991" height="500" preserveAspectRatio="xMidYMid meet" version="1.0"><defs><g/><clipPath id="ae66377977"><path d="M 84.238281 133.234375 L 150.011719 133.234375 L 150.011719 199.007812 L 84.238281 199.007812 Z M 84.238281 133.234375 " clip-rule="nonzero"/></clipPath><clipPath id="cebef9fd26"><path d="M 154.632812 133.234375 L 220.410156 133.234375 L 220.410156 199.007812 L 154.632812 199.007812 Z M 154.632812 133.234375 " clip-rule="nonzero"/></clipPath><clipPath id="e7d7c5aee0"><path d="M 224.988281 133.234375 L 290.761719 133.234375 L 290.761719 199.007812 L 224.988281 199.007812 Z M 224.988281 133.234375 " clip-rule="nonzero"/></clipPath><clipPath id="5dcf49f962"><path d="M 84.238281 203.535156 L 290.761719 203.535156 L 290.761719 210.722656 L 84.238281 210.722656 Z M 84.238281 203.535156 " clip-rule="nonzero"/></clipPath></defs><g clip-path="url(#ae66377977)"><path fill="#282973" d="M 84.238281 133.234375 L 150.011719 133.234375 L 150.011719 199.007812 L 84.238281 199.007812 Z M 84.238281 133.234375 " fill-opacity="1" fill-rule="nonzero"/></g><g clip-path="url(#cebef9fd26)"><path fill="#545454" d="M 154.632812 133.234375 L 220.410156 133.234375 L 220.410156 199.007812 L 154.632812 199.007812 Z M 154.632812 133.234375 " fill-opacity="1" fill-rule="nonzero"/></g><g clip-path="url(#e7d7c5aee0)"><path fill="#282973" d="M 224.988281 133.234375 L 290.761719 133.234375 L 290.761719 199.007812 L 224.988281 199.007812 Z M 224.988281 133.234375 " fill-opacity="1" fill-rule="nonzero"/></g><g clip-path="url(#5dcf49f962)"><path fill="#545454" d="M 84.238281 203.535156 L 290.761719 203.535156 L 290.761719 210.722656 L 84.238281 210.722656 Z M 84.238281 203.535156 " fill-opacity="1" fill-rule="nonzero"/></g><g fill="#ffffff" fill-opacity="1"><g transform="translate(100.20601, 188.486006)"><g><path d="M 3.234375 -0.59375 C 4.253906 -0.59375 5.125 -0.953125 5.84375 -1.671875 C 6.570312 -2.398438 6.957031 -3.273438 7 -4.296875 L 7 -37.046875 C 6.914062 -38.066406 6.617188 -38.8125 6.109375 -39.28125 C 5.171875 -40.144531 4.210938 -40.578125 3.234375 -40.578125 L 2.46875 -40.578125 L 2.46875 -41.171875 L 25 -41.171875 C 26.914062 -41.171875 28.5 -41.316406 29.75 -41.609375 C 31.007812 -41.898438 31.773438 -42.109375 32.046875 -42.234375 L 32.046875 -31.9375 L 31.46875 -32 L 31.46875 -32.640625 C 31.46875 -35.066406 30.566406 -36.789062 28.765625 -37.8125 C 27.898438 -38.320312 26.878906 -38.597656 25.703125 -38.640625 L 15.828125 -38.640625 L 15.828125 -21.53125 L 23.578125 -21.53125 C 25.035156 -21.5625 26.234375 -22.054688 27.171875 -23.015625 C 28.109375 -23.984375 28.578125 -25.171875 28.578125 -26.578125 L 28.578125 -27.109375 L 29.171875 -27.109375 L 29.171875 -13.53125 L 28.578125 -13.53125 L 28.578125 -14 C 28.578125 -15.445312 28.113281 -16.640625 27.1875 -17.578125 C 26.269531 -18.523438 25.109375 -19.019531 23.703125 -19.0625 L 15.828125 -19.0625 L 15.828125 -2.53125 L 23.53125 -2.53125 C 26.382812 -2.53125 28.78125 -3.351562 30.71875 -5 C 32.664062 -6.644531 34.109375 -8.976562 35.046875 -12 L 35.640625 -12 L 32.9375 0 L 2.46875 0 L 2.46875 -0.59375 Z M 3.234375 -0.59375 "/></g></g></g><g fill="#ffffff" fill-opacity="1"><g transform="translate(234.855707, 188.486006)"><g><path d="M 26.921875 0.796875 C 19.359375 0.773438 13.421875 -1.132812 9.109375 -4.9375 C 4.796875 -8.738281 2.640625 -13.953125 2.640625 -20.578125 C 2.640625 -27.210938 4.773438 -32.441406 9.046875 -36.265625 C 13.328125 -40.085938 19.191406 -42 26.640625 -42 C 32.328125 -42 37.207031 -40.9375 41.28125 -38.8125 L 41.40625 -28.703125 L 40.9375 -28.703125 C 38.9375 -35.910156 34.367188 -39.515625 27.234375 -39.515625 C 22.609375 -39.515625 18.953125 -37.835938 16.265625 -34.484375 C 13.578125 -31.140625 12.234375 -26.566406 12.234375 -20.765625 C 12.234375 -14.960938 13.515625 -10.351562 16.078125 -6.9375 C 18.648438 -3.53125 22.132812 -1.765625 26.53125 -1.640625 C 31.070312 -1.640625 34.539062 -2.78125 36.9375 -5.0625 C 39.363281 -7.414062 41.050781 -11.453125 42 -17.171875 L 42.46875 -17.171875 L 43.046875 -7.0625 C 39.867188 -1.800781 34.492188 0.816406 26.921875 0.796875 Z M 26.921875 0.796875 "/></g></g></g><g fill="#ffffff" fill-opacity="1"><g transform="translate(163.903002, 189.260121)"><g><path d="M 49.875 0 C 45.363281 0.351562 42.441406 0.429688 41.109375 0.234375 C 37.972656 -0.316406 35.484375 -1.117188 33.640625 -2.171875 C 30.578125 -0.328125 26.734375 0.59375 22.109375 0.59375 C 15.410156 0.59375 10.097656 -0.800781 6.171875 -3.59375 C 4.835938 -4.570312 3.738281 -5.84375 2.875 -7.40625 C 2.019531 -8.976562 1.59375 -10.625 1.59375 -12.34375 C 1.59375 -14.070312 1.84375 -15.550781 2.34375 -16.78125 C 2.851562 -18.019531 3.5625 -19.050781 4.46875 -19.875 C 6.113281 -21.445312 8.035156 -22.601562 10.234375 -23.34375 C 8.503906 -26.050781 7.640625 -28.660156 7.640625 -31.171875 C 7.640625 -33.679688 8.328125 -35.757812 9.703125 -37.40625 C 12.328125 -40.46875 16.382812 -42 21.875 -42 C 24.34375 -42 26.65625 -41.632812 28.8125 -40.90625 C 30.96875 -40.175781 32.535156 -39.144531 33.515625 -37.8125 L 31.40625 -29.40625 L 30.875 -29.40625 C 30.832031 -32.3125 30.203125 -34.722656 28.984375 -36.640625 C 27.773438 -38.554688 26.050781 -39.515625 23.8125 -39.515625 C 21.582031 -39.515625 19.847656 -38.867188 18.609375 -37.578125 C 17.378906 -36.285156 16.765625 -34.597656 16.765625 -32.515625 C 16.765625 -30.441406 17.519531 -28.425781 19.03125 -26.46875 C 20.539062 -24.507812 23.457031 -21.632812 27.78125 -17.84375 C 32.113281 -14.0625 34.753906 -11.78125 35.703125 -11 C 36.210938 -12.644531 36.46875 -14.289062 36.46875 -15.9375 C 36.46875 -17.582031 36.0625 -19.25 35.25 -20.9375 C 34.445312 -22.625 33.285156 -23.46875 31.765625 -23.46875 C 31.765625 -23.46875 31.742188 -23.46875 31.703125 -23.46875 L 30.8125 -23.46875 L 30.8125 -24.046875 L 44.578125 -24.046875 L 44.578125 -23.46875 L 43.75 -23.46875 C 43.75 -23.46875 43.734375 -23.46875 43.703125 -23.46875 C 42.910156 -23.46875 42.378906 -23.210938 42.109375 -22.703125 C 41.835938 -22.191406 41.703125 -21.425781 41.703125 -20.40625 L 41.703125 -19.40625 C 41.703125 -14.9375 40.859375 -11.132812 39.171875 -8 C 41.679688 -5.84375 43.738281 -4.175781 45.34375 -3 C 46.945312 -1.820312 48.457031 -1.035156 49.875 -0.640625 Z M 24.296875 -1.875 C 26.835938 -1.875 29.070312 -2.582031 31 -4 C 27.78125 -6.507812 24.296875 -9.378906 20.546875 -12.609375 C 16.804688 -15.847656 14.113281 -18.445312 12.46875 -20.40625 C 11.40625 -18.757812 10.875 -16.835938 10.875 -14.640625 C 10.875 -10.523438 12.21875 -7.367188 14.90625 -5.171875 C 17.59375 -2.972656 20.722656 -1.875 24.296875 -1.875 Z M 24.296875 -1.875 "/></g></g></g><g fill="#282973" fill-opacity="1"><g transform="translate(82.64064, 235.382275)"><g><path d="M 1.203125 -0.21875 C 1.585938 -0.21875 1.914062 -0.351562 2.1875 -0.625 C 2.457031 -0.894531 2.597656 -1.222656 2.609375 -1.609375 L 2.609375 -13.84375 C 2.585938 -14.226562 2.476562 -14.507812 2.28125 -14.6875 C 1.9375 -15.007812 1.578125 -15.171875 1.203125 -15.171875 L 0.921875 -15.171875 L 0.921875 -15.390625 L 9.34375 -15.390625 C 10.0625 -15.390625 10.65625 -15.441406 11.125 -15.546875 C 11.59375 -15.660156 11.878906 -15.738281 11.984375 -15.78125 L 11.984375 -11.9375 L 11.765625 -11.953125 L 11.765625 -12.203125 C 11.765625 -13.109375 11.425781 -13.753906 10.75 -14.140625 C 10.425781 -14.328125 10.046875 -14.425781 9.609375 -14.4375 L 5.90625 -14.4375 L 5.90625 -8.046875 L 8.8125 -8.046875 C 9.351562 -8.054688 9.800781 -8.238281 10.15625 -8.59375 C 10.507812 -8.957031 10.6875 -9.40625 10.6875 -9.9375 L 10.6875 -10.140625 L 10.90625 -10.140625 L 10.90625 -5.0625 L 10.6875 -5.0625 L 10.6875 -5.234375 C 10.6875 -5.773438 10.515625 -6.21875 10.171875 -6.5625 C 9.828125 -6.914062 9.390625 -7.101562 8.859375 -7.125 L 5.90625 -7.125 L 5.90625 -0.953125 L 8.796875 -0.953125 C 9.867188 -0.953125 10.765625 -1.257812 11.484375 -1.875 C 12.210938 -2.488281 12.753906 -3.359375 13.109375 -4.484375 L 13.328125 -4.484375 L 12.3125 0 L 0.921875 0 L 0.921875 -0.21875 Z M 1.203125 -0.21875 "/></g></g></g><g fill="#282973" fill-opacity="1"><g transform="translate(100.115819, 235.382275)"><g><path d="M 14.640625 -12.96875 L 14.453125 -12.96875 C 14.148438 -12.96875 13.84375 -12.875 13.53125 -12.6875 C 13.226562 -12.507812 12.976562 -12.226562 12.78125 -11.84375 L 8.296875 -2.390625 C 7.660156 -0.984375 7.328125 -0.09375 7.296875 0.28125 L 7.09375 0.28125 L 1.25 -11.8125 C 0.851562 -12.582031 0.296875 -12.96875 -0.421875 -12.96875 L -0.578125 -12.96875 L -0.578125 -13.1875 L 5.859375 -13.1875 L 5.859375 -13 L 5.6875 -13 C 5.40625 -13 5.195312 -12.90625 5.0625 -12.71875 C 4.925781 -12.53125 4.859375 -12.359375 4.859375 -12.203125 C 4.859375 -12.054688 4.882812 -11.898438 4.9375 -11.734375 L 8.015625 -4.59375 L 11.15625 -11.734375 C 11.226562 -11.910156 11.265625 -12.070312 11.265625 -12.21875 C 11.265625 -12.363281 11.195312 -12.53125 11.0625 -12.71875 C 10.925781 -12.90625 10.71875 -13 10.4375 -13 L 10.265625 -13 L 10.265625 -13.1875 L 14.640625 -13.1875 Z M 14.640625 -12.96875 "/></g></g></g><g fill="#282973" fill-opacity="1"><g transform="translate(117.700893, 235.382275)"><g><path d="M 14.640625 -0.21875 L 14.8125 -0.21875 L 14.8125 0 L 8.34375 0 L 8.34375 -0.21875 L 8.53125 -0.21875 C 8.820312 -0.21875 9.03125 -0.304688 9.15625 -0.484375 C 9.289062 -0.660156 9.359375 -0.820312 9.359375 -0.96875 C 9.359375 -1.113281 9.328125 -1.265625 9.265625 -1.421875 L 8.40625 -3.453125 L 3.75 -3.453125 L 2.875 -1.40625 C 2.8125 -1.257812 2.78125 -1.109375 2.78125 -0.953125 C 2.78125 -0.796875 2.847656 -0.632812 2.984375 -0.46875 C 3.128906 -0.300781 3.347656 -0.21875 3.640625 -0.21875 L 3.8125 -0.21875 L 3.8125 0 L -0.578125 0 L -0.578125 -0.21875 L -0.40625 -0.21875 C -0.09375 -0.21875 0.210938 -0.3125 0.515625 -0.5 C 0.828125 -0.695312 1.078125 -0.984375 1.265625 -1.359375 L 5.8125 -11.125 C 6.457031 -12.570312 6.796875 -13.46875 6.828125 -13.8125 L 7.03125 -13.8125 L 12.921875 -1.453125 C 13.109375 -1.023438 13.359375 -0.710938 13.671875 -0.515625 C 13.992188 -0.316406 14.316406 -0.21875 14.640625 -0.21875 Z M 4.125 -4.3125 L 8.046875 -4.3125 L 6.109375 -8.90625 Z M 4.125 -4.3125 "/></g></g></g><g fill="#282973" fill-opacity="1"><g transform="translate(135.461793, 235.382275)"><g><path d="M 10.515625 -13.1875 L 16.6875 -13.1875 L 16.6875 -12.96875 L 16.3125 -12.96875 C 15.976562 -12.96875 15.695312 -12.863281 15.46875 -12.65625 C 15.238281 -12.457031 15.117188 -12.195312 15.109375 -11.875 L 15.109375 -2.265625 C 15.109375 -1.359375 15.164062 -0.609375 15.28125 -0.015625 L 15.328125 0.28125 L 15.125 0.28125 L 5.03125 -8.625 L 5.03125 -1.34375 C 5.050781 -1.019531 5.171875 -0.75 5.390625 -0.53125 C 5.617188 -0.320312 5.90625 -0.21875 6.25 -0.21875 L 6.625 -0.21875 L 6.625 0 L 0.46875 0 L 0.46875 -0.21875 L 0.8125 -0.21875 C 1.144531 -0.21875 1.425781 -0.320312 1.65625 -0.53125 C 1.894531 -0.75 2.015625 -1.019531 2.015625 -1.34375 L 2.015625 -11.015625 C 2.015625 -11.890625 1.957031 -12.613281 1.84375 -13.1875 L 1.796875 -13.5 L 2 -13.46875 L 12.0625 -4.609375 L 12.0625 -11.84375 C 12.0625 -12.164062 11.945312 -12.429688 11.71875 -12.640625 C 11.5 -12.859375 11.21875 -12.96875 10.875 -12.96875 L 10.515625 -12.96875 Z M 10.515625 -13.1875 "/></g></g></g><g fill="#282973" fill-opacity="1"><g transform="translate(156.189881, 235.382275)"><g><path d="M 13.703125 -11.4375 C 15.035156 -10.269531 15.703125 -8.65625 15.703125 -6.59375 C 15.703125 -4.53125 15.035156 -2.914062 13.703125 -1.75 C 12.367188 -0.582031 10.519531 0 8.15625 0 L 0.71875 0 L 0.71875 -0.21875 L 1.015625 -0.21875 C 1.347656 -0.21875 1.628906 -0.332031 1.859375 -0.5625 C 2.097656 -0.800781 2.226562 -1.082031 2.25 -1.40625 L 2.25 -11.828125 C 2.21875 -12.148438 2.082031 -12.421875 1.84375 -12.640625 C 1.613281 -12.859375 1.328125 -12.96875 0.984375 -12.96875 L 0.71875 -12.96875 L 0.71875 -13.1875 L 8.15625 -13.1875 C 10.519531 -13.1875 12.367188 -12.601562 13.703125 -11.4375 Z M 7.890625 -0.875 C 9.265625 -0.875 10.351562 -1.378906 11.15625 -2.390625 C 11.957031 -3.398438 12.359375 -4.800781 12.359375 -6.59375 C 12.359375 -8.382812 11.957031 -9.785156 11.15625 -10.796875 C 10.351562 -11.816406 9.265625 -12.328125 7.890625 -12.328125 L 5.40625 -12.328125 L 5.40625 -0.875 Z M 7.890625 -0.875 "/></g></g></g><g fill="#282973" fill-opacity="1"><g transform="translate(176.236613, 235.382275)"><g><path d="M 6.21875 -12.296875 L 5.515625 -12.296875 L 5.515625 -1.390625 C 5.515625 -1.035156 5.632812 -0.75 5.875 -0.53125 C 6.125 -0.320312 6.398438 -0.21875 6.703125 -0.21875 L 6.953125 -0.21875 L 6.953125 0 L 0.90625 0 L 0.90625 -0.21875 L 1.171875 -0.21875 C 1.492188 -0.21875 1.765625 -0.328125 1.984375 -0.546875 C 2.210938 -0.765625 2.328125 -1.035156 2.328125 -1.359375 L 2.328125 -11.828125 C 2.328125 -12.148438 2.210938 -12.421875 1.984375 -12.640625 C 1.765625 -12.859375 1.5 -12.96875 1.1875 -12.96875 L 0.90625 -12.96875 L 0.90625 -13.1875 L 7.65625 -13.1875 C 8.96875 -13.1875 10.070312 -12.929688 10.96875 -12.421875 C 11.96875 -11.847656 12.46875 -10.898438 12.46875 -9.578125 C 12.46875 -8.734375 12.207031 -7.96875 11.6875 -7.28125 C 11.175781 -6.601562 10.414062 -6.191406 9.40625 -6.046875 C 9.800781 -5.910156 10.191406 -5.660156 10.578125 -5.296875 C 10.972656 -4.929688 11.285156 -4.554688 11.515625 -4.171875 C 11.984375 -3.335938 12.472656 -2.570312 12.984375 -1.875 C 13.503906 -1.175781 13.921875 -0.722656 14.234375 -0.515625 C 14.546875 -0.316406 14.929688 -0.21875 15.390625 -0.21875 L 15.390625 0 L 13.546875 0 C 12.328125 0 11.390625 -0.144531 10.734375 -0.4375 C 10.085938 -0.726562 9.503906 -1.285156 8.984375 -2.109375 C 8.191406 -3.367188 7.703125 -4.363281 7.515625 -5.09375 C 7.335938 -5.539062 7.128906 -5.875 6.890625 -6.09375 C 6.648438 -6.3125 6.421875 -6.4375 6.203125 -6.46875 L 6.203125 -6.640625 L 6.75 -6.640625 C 8 -6.648438 8.757812 -7.382812 9.03125 -8.84375 C 9.09375 -9.0625 9.125 -9.25 9.125 -9.40625 C 9.125 -9.570312 9.113281 -9.796875 9.09375 -10.078125 C 9.082031 -10.367188 8.992188 -10.691406 8.828125 -11.046875 C 8.660156 -11.398438 8.441406 -11.660156 8.171875 -11.828125 C 7.722656 -12.109375 7.253906 -12.253906 6.765625 -12.265625 C 6.609375 -12.285156 6.425781 -12.296875 6.21875 -12.296875 Z M 6.21875 -12.296875 "/></g></g></g><g fill="#282973" fill-opacity="1"><g transform="translate(194.283239, 235.382275)"><g><path d="M 0.765625 -6.59375 C 0.765625 -8.707031 1.472656 -10.378906 2.890625 -11.609375 C 4.304688 -12.847656 6.1875 -13.46875 8.53125 -13.46875 C 10.882812 -13.46875 12.769531 -12.847656 14.1875 -11.609375 C 15.613281 -10.378906 16.328125 -8.707031 16.328125 -6.59375 C 16.328125 -4.476562 15.613281 -2.800781 14.1875 -1.5625 C 12.769531 -0.332031 10.890625 0.28125 8.546875 0.28125 C 6.203125 0.28125 4.316406 -0.332031 2.890625 -1.5625 C 1.472656 -2.800781 0.765625 -4.476562 0.765625 -6.59375 Z M 4.140625 -6.59375 C 4.140625 -4.75 4.535156 -3.285156 5.328125 -2.203125 C 6.128906 -1.128906 7.195312 -0.59375 8.53125 -0.59375 C 9.875 -0.59375 10.945312 -1.128906 11.75 -2.203125 C 12.550781 -3.285156 12.953125 -4.75 12.953125 -6.59375 C 12.953125 -8.4375 12.550781 -9.894531 11.75 -10.96875 C 10.945312 -12.050781 9.875 -12.59375 8.53125 -12.59375 C 7.195312 -12.59375 6.128906 -12.050781 5.328125 -10.96875 C 4.535156 -9.894531 4.140625 -8.4375 4.140625 -6.59375 Z M 4.140625 -6.59375 "/></g></g></g><g fill="#282973" fill-opacity="1"><g transform="translate(214.96736, 235.382275)"><g/></g></g><g fill="#282973" fill-opacity="1"><g transform="translate(224.068475, 235.382275)"><g><path d="M 18.640625 0 C 16.953125 0.132812 15.859375 0.164062 15.359375 0.09375 C 14.191406 -0.113281 13.265625 -0.414062 12.578125 -0.8125 C 11.429688 -0.125 9.992188 0.21875 8.265625 0.21875 C 5.753906 0.21875 3.769531 -0.300781 2.3125 -1.34375 C 1.8125 -1.707031 1.398438 -2.179688 1.078125 -2.765625 C 0.753906 -3.359375 0.59375 -3.972656 0.59375 -4.609375 C 0.59375 -5.253906 0.6875 -5.804688 0.875 -6.265625 C 1.070312 -6.734375 1.335938 -7.125 1.671875 -7.4375 C 2.285156 -8.019531 3.003906 -8.453125 3.828125 -8.734375 C 3.179688 -9.742188 2.859375 -10.71875 2.859375 -11.65625 C 2.859375 -12.59375 3.113281 -13.367188 3.625 -13.984375 C 4.601562 -15.128906 6.117188 -15.703125 8.171875 -15.703125 C 9.097656 -15.703125 9.960938 -15.566406 10.765625 -15.296875 C 11.578125 -15.023438 12.164062 -14.640625 12.53125 -14.140625 L 11.734375 -10.984375 L 11.546875 -10.984375 C 11.523438 -12.078125 11.285156 -12.984375 10.828125 -13.703125 C 10.378906 -14.421875 9.738281 -14.78125 8.90625 -14.78125 C 8.070312 -14.78125 7.421875 -14.535156 6.953125 -14.046875 C 6.492188 -13.566406 6.265625 -12.9375 6.265625 -12.15625 C 6.265625 -11.375 6.546875 -10.617188 7.109375 -9.890625 C 7.671875 -9.160156 8.757812 -8.085938 10.375 -6.671875 C 12 -5.253906 12.988281 -4.398438 13.34375 -4.109375 C 13.53125 -4.722656 13.625 -5.335938 13.625 -5.953125 C 13.625 -6.566406 13.472656 -7.1875 13.171875 -7.8125 C 12.878906 -8.445312 12.445312 -8.765625 11.875 -8.765625 C 11.875 -8.765625 11.863281 -8.765625 11.84375 -8.765625 L 11.515625 -8.765625 L 11.515625 -8.984375 L 16.671875 -8.984375 L 16.671875 -8.765625 L 16.359375 -8.765625 C 16.359375 -8.765625 16.347656 -8.765625 16.328125 -8.765625 C 16.035156 -8.765625 15.835938 -8.671875 15.734375 -8.484375 C 15.640625 -8.296875 15.59375 -8.007812 15.59375 -7.625 L 15.59375 -7.25 C 15.59375 -5.582031 15.273438 -4.160156 14.640625 -2.984375 C 15.578125 -2.179688 16.34375 -1.5625 16.9375 -1.125 C 17.539062 -0.6875 18.109375 -0.390625 18.640625 -0.234375 Z M 9.078125 -0.703125 C 10.035156 -0.703125 10.867188 -0.96875 11.578125 -1.5 C 10.378906 -2.4375 9.078125 -3.507812 7.671875 -4.71875 C 6.273438 -5.925781 5.269531 -6.894531 4.65625 -7.625 C 4.257812 -7.007812 4.0625 -6.289062 4.0625 -5.46875 C 4.0625 -3.9375 4.5625 -2.757812 5.5625 -1.9375 C 6.570312 -1.113281 7.742188 -0.703125 9.078125 -0.703125 Z M 9.078125 -0.703125 "/></g></g></g><g fill="#282973" fill-opacity="1"><g transform="translate(245.411978, 235.382275)"><g/></g></g><g fill="#282973" fill-opacity="1"><g transform="translate(254.513092, 235.382275)"><g><path d="M 10.0625 0.296875 C 7.238281 0.285156 5.019531 -0.425781 3.40625 -1.84375 C 1.789062 -3.269531 0.984375 -5.21875 0.984375 -7.6875 C 0.984375 -10.164062 1.78125 -12.117188 3.375 -13.546875 C 4.976562 -14.984375 7.171875 -15.703125 9.953125 -15.703125 C 12.078125 -15.703125 13.90625 -15.304688 15.4375 -14.515625 L 15.484375 -10.734375 L 15.296875 -10.734375 C 14.554688 -13.429688 12.847656 -14.78125 10.171875 -14.78125 C 8.441406 -14.78125 7.078125 -14.148438 6.078125 -12.890625 C 5.078125 -11.640625 4.578125 -9.925781 4.578125 -7.75 C 4.578125 -5.582031 5.054688 -3.863281 6.015625 -2.59375 C 6.972656 -1.320312 8.273438 -0.660156 9.921875 -0.609375 C 11.617188 -0.609375 12.914062 -1.035156 13.8125 -1.890625 C 14.71875 -2.765625 15.347656 -4.273438 15.703125 -6.421875 L 15.875 -6.421875 L 16.09375 -2.640625 C 14.90625 -0.671875 12.894531 0.304688 10.0625 0.296875 Z M 10.0625 0.296875 "/></g></g></g><g fill="#282973" fill-opacity="1"><g transform="translate(275.263153, 235.382275)"><g><path d="M 0.765625 -6.59375 C 0.765625 -8.707031 1.472656 -10.378906 2.890625 -11.609375 C 4.304688 -12.847656 6.1875 -13.46875 8.53125 -13.46875 C 10.882812 -13.46875 12.769531 -12.847656 14.1875 -11.609375 C 15.613281 -10.378906 16.328125 -8.707031 16.328125 -6.59375 C 16.328125 -4.476562 15.613281 -2.800781 14.1875 -1.5625 C 12.769531 -0.332031 10.890625 0.28125 8.546875 0.28125 C 6.203125 0.28125 4.316406 -0.332031 2.890625 -1.5625 C 1.472656 -2.800781 0.765625 -4.476562 0.765625 -6.59375 Z M 4.140625 -6.59375 C 4.140625 -4.75 4.535156 -3.285156 5.328125 -2.203125 C 6.128906 -1.128906 7.195312 -0.59375 8.53125 -0.59375 C 9.875 -0.59375 10.945312 -1.128906 11.75 -2.203125 C 12.550781 -3.285156 12.953125 -4.75 12.953125 -6.59375 C 12.953125 -8.4375 12.550781 -9.894531 11.75 -10.96875 C 10.945312 -12.050781 9.875 -12.59375 8.53125 -12.59375 C 7.195312 -12.59375 6.128906 -12.050781 5.328125 -10.96875 C 4.535156 -9.894531 4.140625 -8.4375 4.140625 -6.59375 Z M 4.140625 -6.59375 "/></g></g></g></svg>